<?xml version="1.0" encoding="UTF-8" standalone="no"?>
<svg
   version="1.1"
   width="20in"
   height="27.5in"
   id="svg797"
   sodipodi:docname="cnc-drawer-top-left.svg"
   inkscape:version="1.2.1 (9c6d41e4, 2022-07-14)"
   xmlns:inkscape="http://www.inkscape.org/namespaces/inkscape"
   xmlns:sodipodi="http://sodipodi.sourceforge.net/DTD/sodipodi-0.dtd"
   xmlns="http://www.w3.org/2000/svg"
   xmlns:svg="http://www.w3.org/2000/svg">
  <defs
     id="defs801" />
  <sodipodi:namedview
     id="namedview799"
     pagecolor="#ffffff"
     bordercolor="#666666"
     borderopacity="1.0"
     inkscape:showpageshadow="2"
     inkscape:pageopacity="0.0"
     inkscape:pagecheckerboard="0"
     inkscape:deskcolor="#d1d1d1"
     showgrid="true"
     inkscape:document-units="in"
     inkscape:zoom="1.8618058"
     inkscape:cx="1087.9223"
     inkscape:cy="1250.6675"
     inkscape:window-width="1792"
     inkscape:window-height="1067"
     inkscape:window-x="0"
     inkscape:window-y="25"
     inkscape:window-maximized="0"
     inkscape:current-layer="svg797">
    <inkscape:grid
       type="xygrid"
       id="grid803"
       originx="0"
       originy="0"
       units="in"
       empspacing="10"
       spacingx="48"
       spacingy="48" />
  </sodipodi:namedview>
  <path
     d="m 1404.3914,1872.5 c 6.6795,0 12.0991,5.42 12.0991,12.1 0,6.68 -5.4196,12.1 -12.0991,12.1 -6.6794,0 -12.089,-5.42 -12.089,-12.1 0,-6.68 5.4096,-12.1 12.089,-12.1 z"
     stroke="#000000"
     stroke-width="0.99996"
     fill="none"
     id="path531" />
  <path
     d="m 72.748233,2080.3972 c 195.200097,0 390.400097,0 585.600097,0 13.255,0 24,10.74 24,24 0,40 0,80 0,120 0,13.25 -10.745,24 -24,24 -195.2,0 -390.4,0 -585.600097,0 -13.2548,0 -24,-10.75 -24,-24 0,-40 0,-80 0,-120 0,-13.26 10.7452,-24 24,-24 z"
     stroke="#000000"
     stroke-width="1"
     fill="none"
     id="path533" />
  <path
     d="m 1372.9544,2374.91 c 0,0 46.0927,0 46.0927,0 0,0 0,-46.09 0,-46.09 0,0 -46.0927,0 -46.0927,0 0,0 0,46.09 0,46.09 z"
     stroke="#000000"
     stroke-width="1.00003"
     fill="none"
     id="path535" />
  <path
     d="m 88.472143,1780.5151 c 0,0 879.055697,0 879.055697,0 10.59704,0 20.76086,3.4616 28.25386,9.6278 7.4929,6.1663 11.7032,14.5327 11.7032,23.2421 0,0 0,197.23 0,197.23 0,8.7195 -4.2103,17.0859 -11.7032,23.2421 -7.493,6.1662 -17.65682,9.6278 -28.25386,9.6278 0,0 -879.055697,0 -879.055697,0 -10.597246,0 -20.760539,-3.4616 -28.253857,-9.6278 -7.493422,-6.1562 -11.703216,-14.5226 -11.703216,-23.2421 0,0 0,-197.23 0,-197.23 0,-8.7094 4.209794,-17.0758 11.703216,-23.2421 7.493318,-6.1662 17.656611,-9.6278 28.253857,-9.6278 z"
     stroke="#000000"
     stroke-width="1.03014"
     fill="none"
     id="path537" />
  <path
     d="m 1452.3876,1872.5 c 6.6795,0 12.0991,5.42 12.0991,12.1 0,6.68 -5.4196,12.1 -12.0991,12.1 -6.6795,0 -12.089,-5.42 -12.089,-12.1 0,-6.68 5.4095,-12.1 12.089,-12.1 z"
     stroke="#000000"
     stroke-width="0.99996"
     fill="none"
     id="path539" />
  <path
     d="m 1548.38,1872.5 c 6.6795,0 12.099,5.42 12.099,12.1 0,6.68 -5.4195,12.1 -12.099,12.1 -6.6795,0 -12.089,-5.42 -12.089,-12.1 0,-6.68 5.4095,-12.1 12.089,-12.1 z"
     stroke="#000000"
     stroke-width="0.99996"
     fill="none"
     id="path541" />
  <path
     d="m 1500.3838,1872.5 c 6.6795,0 12.0991,5.42 12.0991,12.1 0,6.68 -5.4196,12.1 -12.0991,12.1 -6.6795,0 -12.089,-5.42 -12.089,-12.1 0,-6.68 5.4095,-12.1 12.089,-12.1 z"
     stroke="#000000"
     stroke-width="0.99996"
     fill="none"
     id="path543" />
  <path
     d="m 1500.3838,1920.5 c 6.6795,0 12.0991,5.42 12.0991,12.1 0,6.68 -5.4196,12.1 -12.0991,12.1 -6.6795,0 -12.089,-5.42 -12.089,-12.1 0,-6.68 5.4095,-12.1 12.089,-12.1 z"
     stroke="#000000"
     stroke-width="0.99996"
     fill="none"
     id="path545" />
  <path
     d="m 1548.38,1920.5 c 6.6795,0 12.099,5.42 12.099,12.1 0,6.68 -5.4195,12.1 -12.099,12.1 -6.6795,0 -12.089,-5.42 -12.089,-12.1 0,-6.68 5.4095,-12.1 12.089,-12.1 z"
     stroke="#000000"
     stroke-width="0.99996"
     fill="none"
     id="path547" />
  <path
     d="m 1452.3876,1920.5 c 6.6795,0 12.0991,5.42 12.0991,12.1 0,6.68 -5.4196,12.1 -12.0991,12.1 -6.6795,0 -12.089,-5.42 -12.089,-12.1 0,-6.68 5.4095,-12.1 12.089,-12.1 z"
     stroke="#000000"
     stroke-width="0.99996"
     fill="none"
     id="path549" />
  <path
     d="m 1404.3914,1920.5 c 6.6795,0 12.0991,5.42 12.0991,12.1 0,6.68 -5.4196,12.1 -12.0991,12.1 -6.6794,0 -12.089,-5.42 -12.089,-12.1 0,-6.68 5.4096,-12.1 12.089,-12.1 z"
     stroke="#000000"
     stroke-width="0.99996"
     fill="none"
     id="path551" />
  <path
     d="m 1596.3762,1920.5 c 6.6795,0 12.099,5.42 12.099,12.1 0,6.68 -5.4195,12.1 -12.099,12.1 -6.6795,0 -12.089,-5.42 -12.089,-12.1 0,-6.68 5.4095,-12.1 12.089,-12.1 z"
     stroke="#000000"
     stroke-width="0.99996"
     fill="none"
     id="path553" />
  <path
     d="m 1644.3724,1920.5 c 6.6795,0 12.099,5.42 12.099,12.1 0,6.68 -5.4195,12.1 -12.099,12.1 -6.6795,0 -12.089,-5.42 -12.089,-12.1 0,-6.68 5.4095,-12.1 12.089,-12.1 z"
     stroke="#000000"
     stroke-width="0.99996"
     fill="none"
     id="path555" />
  <path
     d="m 1740.3648,1920.5 c 6.6795,0 12.099,5.42 12.099,12.1 0,6.68 -5.4195,12.1 -12.099,12.1 -6.6795,0 -12.0891,-5.42 -12.0891,-12.1 0,-6.68 5.4096,-12.1 12.0891,-12.1 z"
     stroke="#000000"
     stroke-width="0.99996"
     fill="none"
     id="path557" />
  <path
     d="m 1692.3686,1920.5 c 6.6795,0 12.099,5.42 12.099,12.1 0,6.68 -5.4195,12.1 -12.099,12.1 -6.6795,0 -12.0891,-5.42 -12.0891,-12.1 0,-6.68 5.4096,-12.1 12.0891,-12.1 z"
     stroke="#000000"
     stroke-width="0.99996"
     fill="none"
     id="path559" />
  <path
     d="m 1692.3686,1872.5 c 6.6795,0 12.099,5.42 12.099,12.1 0,6.68 -5.4195,12.1 -12.099,12.1 -6.6795,0 -12.0891,-5.42 -12.0891,-12.1 0,-6.68 5.4096,-12.1 12.0891,-12.1 z"
     stroke="#000000"
     stroke-width="0.99996"
     fill="none"
     id="path561" />
  <path
     d="m 1740.3648,1872.5 c 6.6795,0 12.099,5.42 12.099,12.1 0,6.68 -5.4195,12.1 -12.099,12.1 -6.6795,0 -12.0891,-5.42 -12.0891,-12.1 0,-6.68 5.4096,-12.1 12.0891,-12.1 z"
     stroke="#000000"
     stroke-width="0.99996"
     fill="none"
     id="path563" />
  <path
     d="m 1644.3724,1872.5 c 6.6795,0 12.099,5.42 12.099,12.1 0,6.68 -5.4195,12.1 -12.099,12.1 -6.6795,0 -12.089,-5.42 -12.089,-12.1 0,-6.68 5.4095,-12.1 12.089,-12.1 z"
     stroke="#000000"
     stroke-width="0.99996"
     fill="none"
     id="path565" />
  <path
     d="m 1596.3762,1872.5 c 6.6795,0 12.099,5.42 12.099,12.1 0,6.68 -5.4195,12.1 -12.099,12.1 -6.6795,0 -12.089,-5.42 -12.089,-12.1 0,-6.68 5.4095,-12.1 12.089,-12.1 z"
     stroke="#000000"
     stroke-width="0.99996"
     fill="none"
     id="path567" />
  <path
     d="m 1596.3762,1968.5 c 6.6795,0 12.099,5.42 12.099,12.1 0,6.68 -5.4195,12.1 -12.099,12.1 -6.6795,0 -12.089,-5.42 -12.089,-12.1 0,-6.68 5.4095,-12.1 12.089,-12.1 z"
     stroke="#000000"
     stroke-width="0.99996"
     fill="none"
     id="path569" />
  <path
     d="m 1644.3724,1968.5 c 6.6795,0 12.099,5.42 12.099,12.1 0,6.68 -5.4195,12.1 -12.099,12.1 -6.6795,0 -12.089,-5.42 -12.089,-12.1 0,-6.68 5.4095,-12.1 12.089,-12.1 z"
     stroke="#000000"
     stroke-width="0.99996"
     fill="none"
     id="path571" />
  <path
     d="m 1740.3648,1968.5 c 6.6795,0 12.099,5.42 12.099,12.1 0,6.68 -5.4195,12.1 -12.099,12.1 -6.6795,0 -12.0891,-5.42 -12.0891,-12.1 0,-6.68 5.4096,-12.1 12.0891,-12.1 z"
     stroke="#000000"
     stroke-width="0.99996"
     fill="none"
     id="path573" />
  <path
     d="m 1692.3686,1968.5 c 6.6795,0 12.099,5.42 12.099,12.1 0,6.68 -5.4195,12.1 -12.099,12.1 -6.6795,0 -12.0891,-5.42 -12.0891,-12.1 0,-6.68 5.4096,-12.1 12.0891,-12.1 z"
     stroke="#000000"
     stroke-width="0.99996"
     fill="none"
     id="path575" />
  <path
     d="m 1692.3686,2016.5 c 6.6795,0 12.099,5.42 12.099,12.1 0,6.68 -5.4195,12.1 -12.099,12.1 -6.6795,0 -12.0891,-5.42 -12.0891,-12.1 0,-6.68 5.4096,-12.1 12.0891,-12.1 z"
     stroke="#000000"
     stroke-width="0.99996"
     fill="none"
     id="path577" />
  <path
     d="m 1740.3648,2016.5 c 6.6795,0 12.099,5.42 12.099,12.1 0,6.68 -5.4195,12.1 -12.099,12.1 -6.6795,0 -12.0891,-5.42 -12.0891,-12.1 0,-6.68 5.4096,-12.1 12.0891,-12.1 z"
     stroke="#000000"
     stroke-width="0.99996"
     fill="none"
     id="path579" />
  <path
     d="m 1644.3724,2016.5 c 6.6795,0 12.099,5.42 12.099,12.1 0,6.68 -5.4195,12.1 -12.099,12.1 -6.6795,0 -12.089,-5.42 -12.089,-12.1 0,-6.68 5.4095,-12.1 12.089,-12.1 z"
     stroke="#000000"
     stroke-width="0.99996"
     fill="none"
     id="path581" />
  <path
     d="m 1596.3762,2016.5 c 6.6795,0 12.099,5.42 12.099,12.1 0,6.68 -5.4195,12.1 -12.099,12.1 -6.6795,0 -12.089,-5.42 -12.089,-12.1 0,-6.68 5.4095,-12.1 12.089,-12.1 z"
     stroke="#000000"
     stroke-width="0.99996"
     fill="none"
     id="path583" />
  <path
     d="m 1404.3914,2016.5 c 6.6795,0 12.0991,5.42 12.0991,12.1 0,6.68 -5.4196,12.1 -12.0991,12.1 -6.6794,0 -12.089,-5.42 -12.089,-12.1 0,-6.68 5.4096,-12.1 12.089,-12.1 z"
     stroke="#000000"
     stroke-width="0.99996"
     fill="none"
     id="path585" />
  <path
     d="m 1452.3876,2016.5 c 6.6795,0 12.0991,5.42 12.0991,12.1 0,6.68 -5.4196,12.1 -12.0991,12.1 -6.6795,0 -12.089,-5.42 -12.089,-12.1 0,-6.68 5.4095,-12.1 12.089,-12.1 z"
     stroke="#000000"
     stroke-width="0.99996"
     fill="none"
     id="path587" />
  <path
     d="m 1548.38,2016.5 c 6.6795,0 12.099,5.42 12.099,12.1 0,6.68 -5.4195,12.1 -12.099,12.1 -6.6795,0 -12.089,-5.42 -12.089,-12.1 0,-6.68 5.4095,-12.1 12.089,-12.1 z"
     stroke="#000000"
     stroke-width="0.99996"
     fill="none"
     id="path589" />
  <path
     d="m 1500.3838,2016.5 c 6.6795,0 12.0991,5.42 12.0991,12.1 0,6.68 -5.4196,12.1 -12.0991,12.1 -6.6795,0 -12.089,-5.42 -12.089,-12.1 0,-6.68 5.4095,-12.1 12.089,-12.1 z"
     stroke="#000000"
     stroke-width="0.99996"
     fill="none"
     id="path591" />
  <path
     d="m 1500.3838,1968.5 c 6.6795,0 12.0991,5.42 12.0991,12.1 0,6.68 -5.4196,12.1 -12.0991,12.1 -6.6795,0 -12.089,-5.42 -12.089,-12.1 0,-6.68 5.4095,-12.1 12.089,-12.1 z"
     stroke="#000000"
     stroke-width="0.99996"
     fill="none"
     id="path593" />
  <path
     d="m 1548.38,1968.5 c 6.6795,0 12.099,5.42 12.099,12.1 0,6.68 -5.4195,12.1 -12.099,12.1 -6.6795,0 -12.089,-5.42 -12.089,-12.1 0,-6.68 5.4095,-12.1 12.089,-12.1 z"
     stroke="#000000"
     stroke-width="0.99996"
     fill="none"
     id="path595" />
  <path
     d="m 1452.3876,1968.5 c 6.6795,0 12.0991,5.42 12.0991,12.1 0,6.68 -5.4196,12.1 -12.0991,12.1 -6.6795,0 -12.089,-5.42 -12.089,-12.1 0,-6.68 5.4095,-12.1 12.089,-12.1 z"
     stroke="#000000"
     stroke-width="0.99996"
     fill="none"
     id="path597" />
  <path
     d="m 1404.3914,1968.5 c 6.6795,0 12.0991,5.42 12.0991,12.1 0,6.68 -5.4196,12.1 -12.0991,12.1 -6.6794,0 -12.089,-5.42 -12.089,-12.1 0,-6.68 5.4096,-12.1 12.089,-12.1 z"
     stroke="#000000"
     stroke-width="0.99996"
     fill="none"
     id="path599" />
  <path
     d="m 1500.3838,2064.5 c 6.6795,0 12.0991,5.42 12.0991,12.1 0,6.68 -5.4196,12.1 -12.0991,12.1 -6.6795,0 -12.089,-5.42 -12.089,-12.1 0,-6.68 5.4095,-12.1 12.089,-12.1 z"
     stroke="#000000"
     stroke-width="0.99996"
     fill="none"
     id="path601" />
  <path
     d="m 1548.38,2064.5 c 6.6795,0 12.099,5.42 12.099,12.1 0,6.68 -5.4195,12.1 -12.099,12.1 -6.6795,0 -12.089,-5.42 -12.089,-12.1 0,-6.68 5.4095,-12.1 12.089,-12.1 z"
     stroke="#000000"
     stroke-width="0.99996"
     fill="none"
     id="path603" />
  <path
     d="m 1452.3876,2064.5 c 6.6795,0 12.0991,5.42 12.0991,12.1 0,6.68 -5.4196,12.1 -12.0991,12.1 -6.6795,0 -12.089,-5.42 -12.089,-12.1 0,-6.68 5.4095,-12.1 12.089,-12.1 z"
     stroke="#000000"
     stroke-width="0.99996"
     fill="none"
     id="path605" />
  <path
     d="m 1404.3914,2064.5 c 6.6795,0 12.0991,5.42 12.0991,12.1 0,6.68 -5.4196,12.1 -12.0991,12.1 -6.6794,0 -12.089,-5.42 -12.089,-12.1 0,-6.68 5.4096,-12.1 12.089,-12.1 z"
     stroke="#000000"
     stroke-width="0.99996"
     fill="none"
     id="path607" />
  <path
     d="m 1596.3762,2064.5 c 6.6795,0 12.099,5.42 12.099,12.1 0,6.68 -5.4195,12.1 -12.099,12.1 -6.6795,0 -12.089,-5.42 -12.089,-12.1 0,-6.68 5.4095,-12.1 12.089,-12.1 z"
     stroke="#000000"
     stroke-width="0.99996"
     fill="none"
     id="path609" />
  <path
     d="m 1644.3724,2064.5 c 6.6795,0 12.099,5.42 12.099,12.1 0,6.68 -5.4195,12.1 -12.099,12.1 -6.6795,0 -12.089,-5.42 -12.089,-12.1 0,-6.68 5.4095,-12.1 12.089,-12.1 z"
     stroke="#000000"
     stroke-width="0.99996"
     fill="none"
     id="path611" />
  <path
     d="m 1740.3648,2064.5 c 6.6795,0 12.099,5.42 12.099,12.1 0,6.68 -5.4195,12.1 -12.099,12.1 -6.6795,0 -12.0891,-5.42 -12.0891,-12.1 0,-6.68 5.4096,-12.1 12.0891,-12.1 z"
     stroke="#000000"
     stroke-width="0.99996"
     fill="none"
     id="path613" />
  <path
     d="m 1692.3686,2064.5 c 6.6795,0 12.099,5.42 12.099,12.1 0,6.68 -5.4195,12.1 -12.099,12.1 -6.6795,0 -12.0891,-5.42 -12.0891,-12.1 0,-6.68 5.4096,-12.1 12.0891,-12.1 z"
     stroke="#000000"
     stroke-width="0.99996"
     fill="none"
     id="path615" />
  <path
     d="m 1788.361,2064.5 c 6.6794,0 12.099,5.42 12.099,12.1 0,6.68 -5.4196,12.1 -12.099,12.1 -6.6795,0 -12.0891,-5.42 -12.0891,-12.1 0,-6.68 5.4096,-12.1 12.0891,-12.1 z"
     stroke="#000000"
     stroke-width="0.99996"
     fill="none"
     id="path617" />
  <path
     d="m 1788.361,2016.5 c 6.6794,0 12.099,5.42 12.099,12.1 0,6.68 -5.4196,12.1 -12.099,12.1 -6.6795,0 -12.0891,-5.42 -12.0891,-12.1 0,-6.68 5.4096,-12.1 12.0891,-12.1 z"
     stroke="#000000"
     stroke-width="0.99996"
     fill="none"
     id="path619" />
  <path
     d="m 1788.361,1968.5 c 6.6794,0 12.099,5.42 12.099,12.1 0,6.68 -5.4196,12.1 -12.099,12.1 -6.6795,0 -12.0891,-5.42 -12.0891,-12.1 0,-6.68 5.4096,-12.1 12.0891,-12.1 z"
     stroke="#000000"
     stroke-width="0.99996"
     fill="none"
     id="path621" />
  <path
     d="m 1788.361,1872.5 c 6.6794,0 12.099,5.42 12.099,12.1 0,6.68 -5.4196,12.1 -12.099,12.1 -6.6795,0 -12.0891,-5.42 -12.0891,-12.1 0,-6.68 5.4096,-12.1 12.0891,-12.1 z"
     stroke="#000000"
     stroke-width="0.99996"
     fill="none"
     id="path623" />
  <path
     d="m 1788.361,1920.5 c 6.6794,0 12.099,5.42 12.099,12.1 0,6.68 -5.4196,12.1 -12.099,12.1 -6.6795,0 -12.0891,-5.42 -12.0891,-12.1 0,-6.68 5.4096,-12.1 12.0891,-12.1 z"
     stroke="#000000"
     stroke-width="0.99996"
     fill="none"
     id="path625" />
  <g
     id="g1051"
     transform="translate(0,-2.5242)">
    <path
       d="m 1840.2671,2067.0242 c 6.6794,0 12.099,5.42 12.099,12.1 0,6.68 -5.4196,12.1 -12.099,12.1 -6.6795,0 -12.0891,-5.42 -12.0891,-12.1 0,-6.68 5.4096,-12.1 12.0891,-12.1 z"
       stroke="#000000"
       stroke-width="0.99996"
       fill="none"
       id="path617-8" />
    <path
       d="m 1840.2671,2019.0242 c 6.6794,0 12.099,5.42 12.099,12.1 0,6.68 -5.4196,12.1 -12.099,12.1 -6.6795,0 -12.0891,-5.42 -12.0891,-12.1 0,-6.68 5.4096,-12.1 12.0891,-12.1 z"
       stroke="#000000"
       stroke-width="0.99996"
       fill="none"
       id="path619-0" />
    <path
       d="m 1840.2671,1971.0242 c 6.6794,0 12.099,5.42 12.099,12.1 0,6.68 -5.4196,12.1 -12.099,12.1 -6.6795,0 -12.0891,-5.42 -12.0891,-12.1 0,-6.68 5.4096,-12.1 12.0891,-12.1 z"
       stroke="#000000"
       stroke-width="0.99996"
       fill="none"
       id="path621-4" />
    <path
       d="m 1840.2671,1875.0242 c 6.6794,0 12.099,5.42 12.099,12.1 0,6.68 -5.4196,12.1 -12.099,12.1 -6.6795,0 -12.0891,-5.42 -12.0891,-12.1 0,-6.68 5.4096,-12.1 12.0891,-12.1 z"
       stroke="#000000"
       stroke-width="0.99996"
       fill="none"
       id="path623-0" />
    <path
       d="m 1840.2671,1923.0242 c 6.6794,0 12.099,5.42 12.099,12.1 0,6.68 -5.4196,12.1 -12.099,12.1 -6.6795,0 -12.0891,-5.42 -12.0891,-12.1 0,-6.68 5.4096,-12.1 12.0891,-12.1 z"
       stroke="#000000"
       stroke-width="0.99996"
       fill="none"
       id="path625-5" />
  </g>
  <circle
     cx="1400.4404"
     cy="2145.7483"
     r="6.0479999"
     stroke="#000000"
     stroke-width="1"
     fill="none"
     id="circle627" />
  <circle
     cx="1448.4304"
     cy="2145.7683"
     r="6.0479999"
     stroke="#000000"
     stroke-width="1"
     fill="none"
     id="circle629" />
  <circle
     cx="1424.4304"
     cy="2145.7583"
     r="6.0479999"
     stroke="#000000"
     stroke-width="1"
     fill="none"
     id="circle631" />
  <circle
     cx="1424.4404"
     cy="2193.7383"
     r="6.0479999"
     stroke="#000000"
     stroke-width="1"
     fill="none"
     id="circle633" />
  <circle
     cx="1448.4404"
     cy="2193.7483"
     r="6.0479999"
     stroke="#000000"
     stroke-width="1"
     fill="none"
     id="circle635" />
  <circle
     cx="1400.4504"
     cy="2193.7283"
     r="6.0479999"
     stroke="#000000"
     stroke-width="1"
     fill="none"
     id="circle637" />
  <circle
     cx="1376.4504"
     cy="2193.7183"
     r="6.0479999"
     stroke="#000000"
     stroke-width="1"
     fill="none"
     id="circle639" />
  <circle
     cx="1472.4504"
     cy="2193.7183"
     r="6.0479999"
     stroke="#000000"
     stroke-width="1"
     fill="none"
     id="circle641" />
  <circle
     cx="1496.4504"
     cy="2193.7283"
     r="6.0479999"
     stroke="#000000"
     stroke-width="1"
     fill="none"
     id="circle643" />
  <circle
     cx="1544.4404"
     cy="2193.7483"
     r="6.0479999"
     stroke="#000000"
     stroke-width="1"
     fill="none"
     id="circle645" />
  <circle
     cx="1520.4404"
     cy="2193.7383"
     r="6.0479999"
     stroke="#000000"
     stroke-width="1"
     fill="none"
     id="circle647" />
  <circle
     cx="1520.4304"
     cy="2145.7583"
     r="6.0479999"
     stroke="#000000"
     stroke-width="1"
     fill="none"
     id="circle649" />
  <circle
     cx="1544.4304"
     cy="2145.7683"
     r="6.0479999"
     stroke="#000000"
     stroke-width="1"
     fill="none"
     id="circle651" />
  <circle
     cx="1496.4404"
     cy="2145.7483"
     r="6.0479999"
     stroke="#000000"
     stroke-width="1"
     fill="none"
     id="circle653" />
  <circle
     cx="1472.4404"
     cy="2145.7383"
     r="6.0479999"
     stroke="#000000"
     stroke-width="1"
     fill="none"
     id="circle655" />
  <circle
     cx="1664.4404"
     cy="2145.7383"
     r="6.0479999"
     stroke="#000000"
     stroke-width="1"
     fill="none"
     id="circle657" />
  <circle
     cx="1688.4404"
     cy="2145.7483"
     r="6.0479999"
     stroke="#000000"
     stroke-width="1"
     fill="none"
     id="circle659" />
  <circle
     cx="1712.4304"
     cy="2145.7583"
     r="6.0479999"
     stroke="#000000"
     stroke-width="1"
     fill="none"
     id="circle661" />
  <circle
     cx="1688.4504"
     cy="2193.7283"
     r="6.0479999"
     stroke="#000000"
     stroke-width="1"
     fill="none"
     id="circle663" />
  <circle
     cx="1664.4504"
     cy="2193.7183"
     r="6.0479999"
     stroke="#000000"
     stroke-width="1"
     fill="none"
     id="circle665" />
  <circle
     cx="1568.4504"
     cy="2193.7183"
     r="6.0479999"
     stroke="#000000"
     stroke-width="1"
     fill="none"
     id="circle667" />
  <circle
     cx="1592.4504"
     cy="2193.7283"
     r="6.0479999"
     stroke="#000000"
     stroke-width="1"
     fill="none"
     id="circle669" />
  <circle
     cx="1640.4404"
     cy="2193.7483"
     r="6.0479999"
     stroke="#000000"
     stroke-width="1"
     fill="none"
     id="circle671" />
  <circle
     cx="1616.4404"
     cy="2193.7383"
     r="6.0479999"
     stroke="#000000"
     stroke-width="1"
     fill="none"
     id="circle673" />
  <circle
     cx="1616.4304"
     cy="2145.7583"
     r="6.0479999"
     stroke="#000000"
     stroke-width="1"
     fill="none"
     id="circle675" />
  <circle
     cx="1640.4304"
     cy="2145.7683"
     r="6.0479999"
     stroke="#000000"
     stroke-width="1"
     fill="none"
     id="circle677" />
  <circle
     cx="1592.4404"
     cy="2145.7483"
     r="6.0479999"
     stroke="#000000"
     stroke-width="1"
     fill="none"
     id="circle679" />
  <circle
     cx="1568.4404"
     cy="2145.7383"
     r="6.0479999"
     stroke="#000000"
     stroke-width="1"
     fill="none"
     id="circle681" />
  <circle
     cx="1376.4404"
     cy="2145.7483"
     r="6.0479999"
     stroke="#000000"
     stroke-width="1"
     fill="none"
     id="circle683" />
  <circle
     cx="1712.4504"
     cy="2193.7283"
     r="6.0479999"
     stroke="#000000"
     stroke-width="1"
     fill="none"
     id="circle685" />
  <circle
     cx="1736.4604"
     cy="2193.7183"
     r="6.0479999"
     stroke="#000000"
     stroke-width="1"
     fill="none"
     id="circle687" />
  <circle
     cx="1736.4404"
     cy="2145.7483"
     r="6.0479999"
     stroke="#000000"
     stroke-width="1"
     fill="none"
     id="circle689" />
  <path
     d="m 1445.2786,2374.91 c 0,0 46.0926,0 46.0926,0 0,0 0,-46.09 0,-46.09 0,0 -46.0926,0 -46.0926,0 0,0 0,46.09 0,46.09 z"
     stroke="#000000"
     stroke-width="1.00003"
     fill="none"
     id="path691" />
  <path
     d="m 1589.9169,2374.91 c 0,0 46.0926,0 46.0926,0 0,0 0,-46.09 0,-46.09 0,0 -46.0926,0 -46.0926,0 0,0 0,46.09 0,46.09 z"
     stroke="#000000"
     stroke-width="1.00003"
     fill="none"
     id="path693" />
  <path
     d="m 1517.5927,2374.91 c 0,0 46.0927,0 46.0927,0 0,0 0,-46.09 0,-46.09 0,0 -46.0927,0 -46.0927,0 0,0 0,46.09 0,46.09 z"
     stroke="#000000"
     stroke-width="1.00003"
     fill="none"
     id="path695" />
  <path
     d="m 1517.5927,2302.59 c 0,0 46.0927,0 46.0927,0 0,0 0,-46.09 0,-46.09 0,0 -46.0927,0 -46.0927,0 0,0 0,46.09 0,46.09 z"
     stroke="#000000"
     stroke-width="1.00003"
     fill="none"
     id="path697" />
  <path
     d="m 1589.9169,2302.59 c 0,0 46.0926,0 46.0926,0 0,0 0,-46.09 0,-46.09 0,0 -46.0926,0 -46.0926,0 0,0 0,46.09 0,46.09 z"
     stroke="#000000"
     stroke-width="1.00003"
     fill="none"
     id="path699" />
  <path
     d="m 1445.2786,2302.59 c 0,0 46.0926,0 46.0926,0 0,0 0,-46.09 0,-46.09 0,0 -46.0926,0 -46.0926,0 0,0 0,46.09 0,46.09 z"
     stroke="#000000"
     stroke-width="1.00003"
     fill="none"
     id="path701" />
  <path
     d="m 1372.9544,2302.59 c 0,0 46.0927,0 46.0927,0 0,0 0,-46.09 0,-46.09 0,0 -46.0927,0 -46.0927,0 0,0 0,46.09 0,46.09 z"
     stroke="#000000"
     stroke-width="1.00003"
     fill="none"
     id="path703" />
  <path
     d="m 1734.5552,2302.59 c 0,0 46.0926,0 46.0926,0 0,0 0,-46.09 0,-46.09 0,0 -46.0926,0 -46.0926,0 0,0 0,46.09 0,46.09 z"
     stroke="#000000"
     stroke-width="1.00003"
     fill="none"
     id="path705" />
  <path
     d="m 1662.241,2302.59 c 0,0 46.0927,0 46.0927,0 0,0 0,-46.09 0,-46.09 0,0 -46.0927,0 -46.0927,0 0,0 0,46.09 0,46.09 z"
     stroke="#000000"
     stroke-width="1.00003"
     fill="none"
     id="path707" />
  <path
     d="m 1662.241,2374.91 c 0,0 46.0927,0 46.0927,0 0,0 0,-46.09 0,-46.09 0,0 -46.0927,0 -46.0927,0 0,0 0,46.09 0,46.09 z"
     stroke="#000000"
     stroke-width="1.00003"
     fill="none"
     id="path709" />
  <path
     d="m 1734.5552,2374.91 c 0,0 46.0926,0 46.0926,0 0,0 0,-46.09 0,-46.09 0,0 -46.0926,0 -46.0926,0 0,0 0,46.09 0,46.09 z"
     stroke="#000000"
     stroke-width="1.00003"
     fill="none"
     id="path711" />
  <path
     d="m 1806.8793,2374.91 c 0,0 46.0927,0 46.0927,0 0,0 0,-46.09 0,-46.09 0,0 -46.0927,0 -46.0927,0 0,0 0,46.09 0,46.09 z"
     stroke="#000000"
     stroke-width="1.00003"
     fill="none"
     id="path713" />
  <path
     d="m 1806.8793,2302.59 c 0,0 46.0927,0 46.0927,0 0,0 0,-46.09 0,-46.09 0,0 -46.0927,0 -46.0927,0 0,0 0,46.09 0,46.09 z"
     stroke="#000000"
     stroke-width="1.00003"
     fill="none"
     id="path715" />
  <path
     d="m 71.8446,2589.9157 c 0,0 63.598,0.12 63.598,0.12 0,0 48.064,-73.42 48.064,-73.42 0,0 198.303,-0.14 198.303,-0.14 0,0 66.994,-71.86 66.994,-71.86 0,0 181.809,-0.06 181.809,-0.06 0,0 0.231,1.54 0.231,1.54 0,0 0.949,3.77 0.949,3.77 0,0 1.319,3.67 1.319,3.67 0,0 1.669,3.52 1.669,3.52 0,0 2.007,3.33 2.007,3.33 0,0 2.324,3.13 2.324,3.13 0,0 2.619,2.88 2.619,2.88 0,0 2.888,2.61 2.888,2.61 0,0 3.132,2.32 3.132,2.32 0,0 3.343,2 3.343,2 0,0 3.521,1.66 3.521,1.66 0,0 3.668,1.31 3.668,1.31 0,0 3.78,0.94 3.78,0.94 0,0 3.852,0.56 3.852,0.56 0,0 3.891,0.19 3.891,0.19 0,0 3.89,-0.2 3.89,-0.2 0,0 3.853,-0.57 3.853,-0.57 0,0 3.776,-0.95 3.776,-0.95 0,0 3.665,-1.32 3.665,-1.32 0,0 3.519,-1.67 3.519,-1.67 0,0 3.337,-2.01 3.337,-2.01 0,0 3.126,-2.32 3.126,-2.32 0,0 2.88,-2.62 2.88,-2.62 0,0 2.613,-2.89 2.613,-2.89 0,0 2.315,-3.13 2.315,-3.13 0,0 1.998,-3.34 1.998,-3.34 0,0 1.661,-3.53 1.661,-3.53 0,0 1.306,-3.66 1.306,-3.66 0,0 0.944,-3.78 0.944,-3.78 0,0 0.214,-1.47 0.214,-1.47 0,0 266.60502,0.09 266.60502,0.09 0,0 0,-72 0,-72 0,0 -266.23902,-0.09 -266.23902,-0.09 0,0 -0.197,-3.91 -0.197,-3.91 0,0 -0.577,-3.85 -0.577,-3.85 0,0 -0.952,-3.77 -0.952,-3.77 0,0 -1.315,-3.67 -1.315,-3.67 0,0 -1.67,-3.52 -1.67,-3.52 0,0 -2.007,-3.34 -2.007,-3.34 0,0 -2.323,-3.12 -2.323,-3.12 0,0 -2.619,-2.88 -2.619,-2.88 0,0 -2.889,-2.61 -2.889,-2.61 0,0 -3.132,-2.32 -3.132,-2.32 0,0 -3.343,-2 -3.343,-2 0,0 -3.521,-1.66 -3.521,-1.66 0,0 -3.671,-1.31 -3.671,-1.31 0,0 -3.776,-0.94 -3.776,-0.94 0,0 -3.856,-0.56 -3.856,-0.56 0,0 -3.888,-0.19 -3.888,-0.19 0,0 -3.89,0.2 -3.89,0.2 0,0 -3.853,0.57 -3.853,0.57 0,0 -3.776,0.95 -3.776,0.95 0,0 -3.665,1.32 -3.665,1.32 0,0 -3.519,1.67 -3.519,1.67 0,0 -3.337,2.01 -3.337,2.01 0,0 -3.126,2.32 -3.126,2.32 0,0 -2.882,2.62 -2.882,2.62 0,0 -2.611,2.89 -2.611,2.89 0,0 -2.317,3.13 -2.317,3.13 0,0 -1.998,3.34 -1.998,3.34 0,0 -1.658,3.52 -1.658,3.52 0,0 -1.31,3.67 -1.31,3.67 0,0 -0.94,3.78 -0.94,3.78 0,0 -0.566,3.85 -0.566,3.85 0,0 -0.184,3.84 -0.184,3.84 0,0 -182.394,0.06 -182.394,0.06 0,0 -64.986,-51.79 -64.986,-51.79 0,0 -0.343,-0.27 -0.343,-0.27 0,0 -1.163,0.01 -1.163,0.01 0,0 -279.325,0.09 -279.325,0.09 0,0 -13.531,-36.33 -13.531,-36.33 0,0 -39.6586,0.01 -39.6586,0.01 0,0 0,288 0,288 0,0 23.3446,17.58 23.3446,17.58 z"
     stroke="#000000"
     stroke-width="1"
     fill="none"
     id="path717" />
  <path
     d="m 1086.532,2562.0724 c -3.6098,-3.749 -5.4497,-5.5676 -9.8796,-12.1003 -4.4198,-6.5328 -11.0195,-21.6202 -12.7894,-29.0978 -1.77,-7.4777 -1.84,-9.7128 -2.1899,-14.0816 -0.35,-4.3687 -0.24,-7.4878 -0.24,-12.0495 0,-4.5719 0,0.955 0,-15.3617 0,-16.3167 0,0.071 0,-58.1549 0,-58.2261 0,-145.9563 0,-291.2013 0,-145.2451 0,-227.7836 0,-239.9449 0,-12.1512 0,-10.678 0,-15.3515 0,-4.6736 -0.17,-6.7157 0.4599,-12.6998 0.63,-5.974 2.18,-14.3457 5.4098,-22.7073 3.2199,-8.3615 8.4797,-17.8915 15.5794,-26.1006 7.0897,-8.2092 18.3392,-16.7231 27.4388,-21.1833 9.0997,-4.4601 19.1093,-6.9087 25.009,-7.7926 5.8998,-0.8737 5.9798,-0.7416 9.5696,-0.8636 3.5999,-0.132 6.5197,-0.051 11.9795,-0.051 5.4598,0 14.3794,-0.1727 20.7892,0.6604 6.3997,0.8331 9.7796,1.4326 17.4692,4.1046 7.6797,2.6822 17.8693,7.7723 26.8789,15.3007 8.9997,7.5386 20.2892,23.7741 23.779,31.6479 3.4999,7.8739 2.7099,6.4007 4.0999,11.2571 1.3999,4.8564 2.9199,13.2789 3.2798,18.0439 0.35,4.765 0.25,7.3049 0.25,10.3021 0,3.0073 0,0.3251 0,7.6808 0,7.3557 0,11.1962 0,36.4738 0,25.2777 0,42.8644 0,115.172 0,72.2974 0,247.9407 0,318.643 0,70.7023 0,82.8636 0,105.5709 0,22.7174 0,23.9975 0,30.7132 0,6.7258 0,6.6648 0,9.601 0,2.9362 0.1,3.688 -0.22,7.9958 -0.3299,4.3179 -1.7799,13.0859 -3.0698,17.6883 -1.29,4.6024 -0.77,3.4848 -3.5099,10.1497 -2.7299,6.6648 -11.1595,20.3095 -17.7093,27.1166 -6.5497,6.8172 -13.7294,11.8768 -19.1692,15.0569 -5.4497,3.1698 -6.5997,3.6473 -12.1595,5.8012 -5.5697,2.1539 -15.3993,4.5415 -21.7191,5.212 -6.3197,0.6706 -11.6395,0.4572 -15.8093,0.4572 -4.1698,0 -6.1098,0 -9.1896,0 -3.0699,0 -4.7198,0.091 -9.2496,-0.2235 -4.5299,-0.315 -10.9896,-1.209 -17.6893,-3.1902 -6.6897,-1.9913 -16.6693,-6.5836 -21.8091,-9.8754 -5.1498,-3.2917 -7.6497,-5.3643 -10.1896,-7.5487 -2.5299,-2.1844 -3.6498,-3.3223 -5.3998,-5.0698 z"
     stroke="#000000"
     stroke-width="1.00794"
     fill="none"
     id="path719" />
  <path
     id="path721"
     d="M 865.44727 1366.1738 L 865.44727 1438.1738 L 937.44727 1438.1738 L 937.44727 1425.2207 L 970.25586 1425.2207 L 970.25586 1438.1738 L 1042.2559 1438.1738 L 1042.2559 1425.2207 L 1075.0645 1425.2207 L 1075.0645 1438.1738 L 1147.0645 1438.1738 L 1147.0645 1425.2207 L 1179.873 1425.2207 L 1179.873 1438.1738 L 1251.873 1438.1738 L 1251.873 1425.2207 L 1284.6816 1425.2207 L 1284.6816 1438.1738 L 1356.6816 1438.1738 L 1356.6816 1366.1738 L 1284.6816 1366.1738 L 1284.6816 1379.1289 L 1251.873 1379.1289 L 1251.873 1366.1738 L 1179.873 1366.1738 L 1179.873 1379.1289 L 1147.0645 1379.1289 L 1147.0645 1366.1738 L 1075.0645 1366.1738 L 1075.0645 1379.1289 L 1042.2559 1379.1289 L 1042.2559 1366.1738 L 970.25586 1366.1738 L 970.25586 1379.1289 L 937.44727 1379.1289 L 937.44727 1366.1738 L 865.44727 1366.1738 z " />
  <path
     id="path721-0"
     d="M 865.44727 1261.9824 L 865.44727 1333.9824 L 937.44727 1333.9824 L 937.44727 1321.0273 L 970.25586 1321.0273 L 970.25586 1333.9824 L 1042.2559 1333.9824 L 1042.2559 1321.0273 L 1075.0645 1321.0273 L 1075.0645 1333.9824 L 1147.0645 1333.9824 L 1147.0645 1321.0273 L 1179.873 1321.0273 L 1179.873 1333.9824 L 1251.873 1333.9824 L 1251.873 1321.0273 L 1284.6816 1321.0273 L 1284.6816 1333.9824 L 1356.6816 1333.9824 L 1356.6816 1261.9824 L 1284.6816 1261.9824 L 1284.6816 1274.9375 L 1251.873 1274.9375 L 1251.873 1261.9824 L 1179.873 1261.9824 L 1179.873 1274.9375 L 1147.0645 1274.9375 L 1147.0645 1261.9824 L 1075.0645 1261.9824 L 1075.0645 1274.9375 L 1042.2559 1274.9375 L 1042.2559 1261.9824 L 970.25586 1261.9824 L 970.25586 1274.9375 L 937.44727 1274.9375 L 937.44727 1261.9824 L 865.44727 1261.9824 z " />
  <path
     id="path721-0-3"
     d="M 865.44727 1157.791 L 865.44727 1229.791 L 937.44727 1229.791 L 937.44727 1216.8359 L 970.25586 1216.8359 L 970.25586 1229.791 L 1042.2559 1229.791 L 1042.2559 1216.8359 L 1075.0645 1216.8359 L 1075.0645 1229.791 L 1147.0645 1229.791 L 1147.0645 1216.8359 L 1179.873 1216.8359 L 1179.873 1229.791 L 1251.873 1229.791 L 1251.873 1216.8359 L 1284.6816 1216.8359 L 1284.6816 1229.791 L 1356.6816 1229.791 L 1356.6816 1157.791 L 1284.6816 1157.791 L 1284.6816 1170.7441 L 1251.873 1170.7441 L 1251.873 1157.791 L 1179.873 1157.791 L 1179.873 1170.7441 L 1147.0645 1170.7441 L 1147.0645 1157.791 L 1075.0645 1157.791 L 1075.0645 1170.7441 L 1042.2559 1170.7441 L 1042.2559 1157.791 L 970.25586 1157.791 L 970.25586 1170.7441 L 937.44727 1170.7441 L 937.44727 1157.791 L 865.44727 1157.791 z " />
  <path
     id="path721-0-2"
     d="M 865.44727 1053.5977 L 865.44727 1125.5977 L 937.44727 1125.5977 L 937.44727 1112.6426 L 970.25586 1112.6426 L 970.25586 1125.5977 L 1042.2559 1125.5977 L 1042.2559 1112.6426 L 1075.0645 1112.6426 L 1075.0645 1125.5977 L 1147.0645 1125.5977 L 1147.0645 1112.6426 L 1179.873 1112.6426 L 1179.873 1125.5977 L 1251.873 1125.5977 L 1251.873 1112.6426 L 1284.6816 1112.6426 L 1284.6816 1125.5977 L 1356.6816 1125.5977 L 1356.6816 1053.5977 L 1284.6816 1053.5977 L 1284.6816 1066.5527 L 1251.873 1066.5527 L 1251.873 1053.5977 L 1179.873 1053.5977 L 1179.873 1066.5527 L 1147.0645 1066.5527 L 1147.0645 1053.5977 L 1075.0645 1053.5977 L 1075.0645 1066.5527 L 1042.2559 1066.5527 L 1042.2559 1053.5977 L 970.25586 1053.5977 L 970.25586 1066.5527 L 937.44727 1066.5527 L 937.44727 1053.5977 L 865.44727 1053.5977 z " />
  <path
     id="path723"
     d="M 48.5 1475.832 L 48.5 1744.6328 L 125.30078 1744.6328 L 125.30078 1674.3418 L 168.11914 1674.3418 L 168.11914 1744.6328 L 244.91992 1744.6328 L 244.91992 1674.3418 L 287.73828 1674.3418 L 287.73828 1744.6328 L 364.53906 1744.6328 L 364.53906 1674.3418 L 407.35938 1674.3418 L 407.35938 1744.6328 L 484.1582 1744.6328 L 484.1582 1674.3418 L 526.97852 1674.3418 L 526.97852 1744.6328 L 651.77734 1744.6328 L 651.77734 1674.3418 L 694.59766 1674.3418 L 694.59766 1744.6328 L 819.39648 1744.6328 L 819.39648 1509.4316 L 694.59766 1509.4316 L 694.59766 1579.7227 L 651.77734 1579.7227 L 651.77734 1509.4316 L 526.97852 1509.4316 L 526.97852 1579.7227 L 484.1582 1579.7227 L 484.1582 1475.832 L 407.35938 1475.832 L 407.35938 1579.7227 L 364.53906 1579.7227 L 364.53906 1475.832 L 287.73828 1475.832 L 287.73828 1579.7227 L 244.91992 1579.7227 L 244.91992 1475.832 L 168.11914 1475.832 L 168.11914 1579.7227 L 125.30078 1579.7227 L 125.30078 1475.832 L 48.5 1475.832 z "
     style="fill:none;stroke:#000000;stroke-opacity:1" />
  <path
     d="m 1308.599,2064.5 c 6.6795,0 12.0891,5.42 12.0891,12.1 0,6.68 -5.4096,12.1 -12.0891,12.1 -6.6794,0 -12.099,-5.42 -12.099,-12.1 0,-6.68 5.4196,-12.1 12.099,-12.1 z"
     stroke="#000000"
     stroke-width="0.99996"
     fill="none"
     id="path725" />
  <path
     d="m 1356.5952,2064.5 c 6.6795,0 12.0891,5.42 12.0891,12.1 0,6.68 -5.4096,12.1 -12.0891,12.1 -6.6795,0 -12.099,-5.42 -12.099,-12.1 0,-6.68 5.4195,-12.1 12.099,-12.1 z"
     stroke="#000000"
     stroke-width="0.99996"
     fill="none"
     id="path727" />
  <path
     d="m 1308.599,1968.5 c 6.6795,0 12.0891,5.42 12.0891,12.1 0,6.68 -5.4096,12.1 -12.0891,12.1 -6.6794,0 -12.099,-5.42 -12.099,-12.1 0,-6.68 5.4196,-12.1 12.099,-12.1 z"
     stroke="#000000"
     stroke-width="0.99996"
     fill="none"
     id="path729" />
  <path
     d="m 1356.5952,1968.5 c 6.6795,0 12.0891,5.42 12.0891,12.1 0,6.68 -5.4096,12.1 -12.0891,12.1 -6.6795,0 -12.099,-5.42 -12.099,-12.1 0,-6.68 5.4195,-12.1 12.099,-12.1 z"
     stroke="#000000"
     stroke-width="0.99996"
     fill="none"
     id="path731" />
  <path
     d="m 1356.5952,2016.5 c 6.6795,0 12.0891,5.42 12.0891,12.1 0,6.68 -5.4096,12.1 -12.0891,12.1 -6.6795,0 -12.099,-5.42 -12.099,-12.1 0,-6.68 5.4195,-12.1 12.099,-12.1 z"
     stroke="#000000"
     stroke-width="0.99996"
     fill="none"
     id="path733" />
  <path
     d="m 1308.599,2016.5 c 6.6795,0 12.0891,5.42 12.0891,12.1 0,6.68 -5.4096,12.1 -12.0891,12.1 -6.6794,0 -12.099,-5.42 -12.099,-12.1 0,-6.68 5.4196,-12.1 12.099,-12.1 z"
     stroke="#000000"
     stroke-width="0.99996"
     fill="none"
     id="path735" />
  <path
     d="m 1308.599,1920.5 c 6.6795,0 12.0891,5.42 12.0891,12.1 0,6.68 -5.4096,12.1 -12.0891,12.1 -6.6794,0 -12.099,-5.42 -12.099,-12.1 0,-6.68 5.4196,-12.1 12.099,-12.1 z"
     stroke="#000000"
     stroke-width="0.99996"
     fill="none"
     id="path737" />
  <path
     d="m 1356.5952,1920.5 c 6.6795,0 12.0891,5.42 12.0891,12.1 0,6.68 -5.4096,12.1 -12.0891,12.1 -6.6795,0 -12.099,-5.42 -12.099,-12.1 0,-6.68 5.4195,-12.1 12.099,-12.1 z"
     stroke="#000000"
     stroke-width="0.99996"
     fill="none"
     id="path739" />
  <path
     d="m 1356.5952,1872.5 c 6.6795,0 12.0891,5.42 12.0891,12.1 0,6.68 -5.4096,12.1 -12.0891,12.1 -6.6795,0 -12.099,-5.42 -12.099,-12.1 0,-6.68 5.4195,-12.1 12.099,-12.1 z"
     stroke="#000000"
     stroke-width="0.99996"
     fill="none"
     id="path741" />
  <path
     d="m 1308.599,1872.5 c 6.6795,0 12.0891,5.42 12.0891,12.1 0,6.68 -5.4096,12.1 -12.0891,12.1 -6.6794,0 -12.099,-5.42 -12.099,-12.1 0,-6.68 5.4196,-12.1 12.099,-12.1 z"
     stroke="#000000"
     stroke-width="0.99996"
     fill="none"
     id="path743" />
  <circle
     cx="1304.6704"
     cy="2145.7981"
     r="6.0479999"
     stroke="#000000"
     stroke-width="1"
     fill="none"
     id="circle745" />
  <circle
     cx="1304.6804"
     cy="2193.7683"
     r="6.0479999"
     stroke="#000000"
     stroke-width="1"
     fill="none"
     id="circle747" />
  <circle
     cx="1328.6804"
     cy="2193.7783"
     r="6.0479999"
     stroke="#000000"
     stroke-width="1"
     fill="none"
     id="circle749" />
  <circle
     cx="1352.6704"
     cy="2193.7883"
     r="6.0479999"
     stroke="#000000"
     stroke-width="1"
     fill="none"
     id="circle751" />
  <circle
     cx="1352.6604"
     cy="2145.8081"
     r="6.0479999"
     stroke="#000000"
     stroke-width="1"
     fill="none"
     id="circle753" />
  <circle
     cx="1328.6704"
     cy="2145.7981"
     r="6.0479999"
     stroke="#000000"
     stroke-width="1"
     fill="none"
     id="circle755" />
  <path
     d="m 1296.5,2304.02 c 0,0 46.0927,0 46.0927,0 0,0 0,-46.09 0,-46.09 0,0 -46.0927,0 -46.0927,0 0,0 0,46.09 0,46.09 z"
     stroke="#000000"
     stroke-width="1.00003"
     fill="none"
     id="path757" />
  <path
     d="m 1296.5,2376.34 c 0,0 46.0927,0 46.0927,0 0,0 0,-46.09 0,-46.09 0,0 -46.0927,0 -46.0927,0 0,0 0,46.09 0,46.09 z"
     stroke="#000000"
     stroke-width="1.00003"
     fill="none"
     id="path759" />
  <path
     d="m 1372.95,2518.91 c 0,0 46.09,0 46.09,0 0,0 0,-46.09 0,-46.09 0,0 -46.09,0 -46.09,0 0,0 0,46.09 0,46.09 z"
     stroke="#000000"
     stroke-width="1"
     fill="none"
     id="path535-7" />
  <path
     d="m 1445.27,2518.91 c 0,0 46.09,0 46.09,0 0,0 0,-46.09 0,-46.09 0,0 -46.09,0 -46.09,0 0,0 0,46.09 0,46.09 z"
     stroke="#000000"
     stroke-width="1"
     fill="none"
     id="path691-5" />
  <path
     d="m 1589.9,2518.91 c 0,0 46.09,0 46.09,0 0,0 0,-46.09 0,-46.09 0,0 -46.09,0 -46.09,0 0,0 0,46.09 0,46.09 z"
     stroke="#000000"
     stroke-width="1"
     fill="none"
     id="path693-3" />
  <path
     d="m 1517.58,2518.91 c 0,0 46.09,0 46.09,0 0,0 0,-46.09 0,-46.09 0,0 -46.09,0 -46.09,0 0,0 0,46.09 0,46.09 z"
     stroke="#000000"
     stroke-width="1"
     fill="none"
     id="path695-9" />
  <path
     d="m 1517.58,2446.59 c 0,0 46.09,0 46.09,0 0,0 0,-46.09 0,-46.09 0,0 -46.09,0 -46.09,0 0,0 0,46.09 0,46.09 z"
     stroke="#000000"
     stroke-width="1"
     fill="none"
     id="path697-0" />
  <path
     d="m 1589.9,2446.59 c 0,0 46.09,0 46.09,0 0,0 0,-46.09 0,-46.09 0,0 -46.09,0 -46.09,0 0,0 0,46.09 0,46.09 z"
     stroke="#000000"
     stroke-width="1"
     fill="none"
     id="path699-5" />
  <path
     d="m 1445.27,2446.59 c 0,0 46.09,0 46.09,0 0,0 0,-46.09 0,-46.09 0,0 -46.09,0 -46.09,0 0,0 0,46.09 0,46.09 z"
     stroke="#000000"
     stroke-width="1"
     fill="none"
     id="path701-5" />
  <path
     d="m 1372.95,2446.59 c 0,0 46.09,0 46.09,0 0,0 0,-46.09 0,-46.09 0,0 -46.09,0 -46.09,0 0,0 0,46.09 0,46.09 z"
     stroke="#000000"
     stroke-width="1"
     fill="none"
     id="path703-6" />
  <path
     d="m 1734.53,2446.59 c 0,0 46.09,0 46.09,0 0,0 0,-46.09 0,-46.09 0,0 -46.09,0 -46.09,0 0,0 0,46.09 0,46.09 z"
     stroke="#000000"
     stroke-width="1"
     fill="none"
     id="path705-3" />
  <path
     d="m 1662.22,2446.59 c 0,0 46.09,0 46.09,0 0,0 0,-46.09 0,-46.09 0,0 -46.09,0 -46.09,0 0,0 0,46.09 0,46.09 z"
     stroke="#000000"
     stroke-width="1"
     fill="none"
     id="path707-2" />
  <path
     d="m 1662.22,2518.91 c 0,0 46.09,0 46.09,0 0,0 0,-46.09 0,-46.09 0,0 -46.09,0 -46.09,0 0,0 0,46.09 0,46.09 z"
     stroke="#000000"
     stroke-width="1"
     fill="none"
     id="path709-6" />
  <path
     d="m 1734.53,2518.91 c 0,0 46.09,0 46.09,0 0,0 0,-46.09 0,-46.09 0,0 -46.09,0 -46.09,0 0,0 0,46.09 0,46.09 z"
     stroke="#000000"
     stroke-width="1"
     fill="none"
     id="path711-8" />
  <path
     d="m 1806.85,2518.91 c 0,0 46.09,0 46.09,0 0,0 0,-46.09 0,-46.09 0,0 -46.09,0 -46.09,0 0,0 0,46.09 0,46.09 z"
     stroke="#000000"
     stroke-width="1"
     fill="none"
     id="path713-9" />
  <path
     d="m 1806.85,2446.59 c 0,0 46.09,0 46.09,0 0,0 0,-46.09 0,-46.09 0,0 -46.09,0 -46.09,0 0,0 0,46.09 0,46.09 z"
     stroke="#000000"
     stroke-width="1"
     fill="none"
     id="path715-1" />
  <path
     d="m 1296.5,2448.02 c 0,0 46.09,0 46.09,0 0,0 0,-46.09 0,-46.09 0,0 -46.09,0 -46.09,0 0,0 0,46.09 0,46.09 z"
     stroke="#000000"
     stroke-width="1"
     fill="none"
     id="path757-4" />
  <path
     d="m 1296.5,2520.34 c 0,0 46.09,0 46.09,0 0,0 0,-46.09 0,-46.09 0,0 -46.09,0 -46.09,0 0,0 0,46.09 0,46.09 z"
     stroke="#000000"
     stroke-width="1"
     fill="none"
     id="path759-8" />
  <path
     id="path765-6"
     d="M 862.2168 1619.832 L 862.2168 1744.6328 L 982.2168 1744.6328 L 982.2168 1705.9277 L 1025.0371 1705.9277 L 1025.0371 1744.6328 L 1145.0371 1744.6328 L 1145.0371 1705.9277 L 1187.8555 1705.9277 L 1187.8555 1744.7637 L 1307.8555 1744.7637 L 1307.8555 1619.9629 L 1187.8555 1619.9629 L 1187.8555 1658.7988 L 1145.0371 1658.7988 L 1145.0371 1619.832 L 1025.0371 1619.832 L 1025.0371 1658.7988 L 982.2168 1658.7988 L 982.2168 1619.832 L 862.2168 1619.832 z " />
  <path
     id="path765-5-0-3"
     d="M 865.14844 1475.832 L 865.14844 1571.832 L 961.14844 1571.832 L 961.14844 1547.3281 L 993.98047 1547.3281 L 993.98047 1571.832 L 1089.9805 1571.832 L 1089.9805 1547.3281 L 1117.2266 1547.3281 L 1117.2266 1571.832 L 1213.2266 1571.832 L 1213.2266 1547.3281 L 1244.6719 1547.3281 L 1244.6719 1571.832 L 1340.6719 1571.832 L 1340.6719 1475.832 L 1244.6719 1475.832 L 1244.6719 1500.3359 L 1213.2266 1500.3359 L 1213.2266 1475.832 L 1117.2266 1475.832 L 1117.2266 1500.3359 L 1089.9805 1500.3359 L 1089.9805 1475.832 L 993.98047 1475.832 L 993.98047 1500.3359 L 961.14844 1500.3359 L 961.14844 1475.832 L 865.14844 1475.832 z " />
  <path
     id="path767-7-0"
     d="M 48.5 1169.375 L 48.5 1438.1738 L 125.30078 1438.1738 L 125.30078 1367.8672 L 170.77539 1367.8672 L 170.77539 1438.1738 L 247.57617 1438.1738 L 247.57617 1367.8672 L 293.05273 1367.8672 L 293.05273 1438.1738 L 369.85156 1438.1738 L 369.85156 1367.8672 L 415.32812 1367.8672 L 415.32812 1438.1738 L 492.12891 1438.1738 L 492.12891 1367.8672 L 537.60547 1367.8672 L 537.60547 1438.1738 L 662.4043 1438.1738 L 662.4043 1367.8672 L 707.88086 1367.8672 L 707.88086 1438.1738 L 832.68164 1438.1738 L 832.68164 1202.9746 L 707.88086 1202.9746 L 707.88086 1273.2812 L 662.4043 1273.2812 L 662.4043 1202.9746 L 537.60547 1202.9746 L 537.60547 1273.2812 L 492.12891 1273.2812 L 492.12891 1169.375 L 415.32812 1169.375 L 415.32812 1273.2812 L 369.85156 1273.2812 L 369.85156 1169.375 L 293.05273 1169.375 L 293.05273 1273.2812 L 247.57617 1273.2812 L 247.57617 1169.375 L 170.77539 1169.375 L 170.77539 1273.2812 L 125.30078 1273.2812 L 125.30078 1169.375 L 48.5 1169.375 z "
     style="stroke:#000000;stroke-opacity:1;fill:none" />
  <path
     d="M 834.39812,930.25238 V 1164.9128 H 537.87487 V 930.25238 Z"
     stroke="#000000"
     stroke-width="1.53965"
     fill="none"
     id="path767-7-0-8" />
  <path
     id="path769-1"
     d="m 1468.5904,928.82085 h -76.7989 -379.2032 v 76.80075 h 379.2032 v 379.2031 h 76.7989 v -379.2031 z"
     style="fill:none;stroke:#000000;stroke-opacity:1" />
  <path
     d="M 504.50291,1123.7963 H 48.5 v -76.8 h 456.00291 z"
     stroke="#000000"
     stroke-width="1"
     fill="none"
     id="path769-1-0" />
  <circle
     cx="1781.2461"
     cy="2561.3"
     r="16.799999"
     stroke="#000000"
     stroke-width="1"
     fill="none"
     id="circle771" />
  <circle
     cx="1430.2866"
     cy="2561.3"
     r="16.799999"
     stroke="#000000"
     stroke-width="1"
     fill="none"
     id="circle773" />
  <path
     d="M 944.76657,98.761037 V 866.76104 h -432 V 98.761037 Z"
     stroke="#000000"
     stroke-width="1"
     fill="none"
     id="path785" />
  <path
     d="M 480.5,98.761037 V 866.76104 H 48.5 V 98.761037 Z"
     stroke="#000000"
     stroke-width="1"
     fill="none"
     id="path785-5" />
  <path
     d="M 1874.8555,928.81926 V 1307.8937 H 1512.4987 V 928.81926 Z"
     stroke="#000000"
     stroke-width="0.996813"
     fill="none"
     id="path787" />
  <circle
     cx="1839.7394"
     cy="2561.3"
     r="16.799999"
     stroke="#000000"
     stroke-width="1"
     fill="none"
     id="circle789" />
  <circle
     cx="1313.3"
     cy="2561.3"
     r="16.799999"
     stroke="#000000"
     stroke-width="1"
     fill="none"
     id="circle791" />
  <circle
     cx="1636.5007"
     cy="1608.3074"
     r="240"
     stroke="#000000"
     stroke-width="1"
     fill="none"
     id="circle793" />
  <path
     d="m 745.8097,2080.6157 c 80,0 160,0 240,0 13.255,0 24,10.75 24,24 0,40 0,80 0,120 0,13.25 -10.745,24 -24,24 -80,0 -160,0 -240,0 -13.255,0 -24,-10.75 -24,-24 0,-40 0,-80 0,-120 0,-13.25 10.745,-24 24,-24 z"
     stroke="#000000"
     stroke-width="1"
     fill="none"
     id="path795" />
  <circle
     cx="1488.7798"
     cy="2561.3"
     r="16.799999"
     stroke="#000000"
     stroke-width="1"
     fill="none"
     id="circle805" />
  <circle
     cx="1547.2731"
     cy="2561.3"
     r="16.799999"
     stroke="#000000"
     stroke-width="1"
     fill="none"
     id="circle807" />
  <circle
     cx="1605.7664"
     cy="2561.3"
     r="16.799999"
     stroke="#000000"
     stroke-width="1"
     fill="none"
     id="circle809" />
  <circle
     cx="1664.2596"
     cy="2561.3"
     r="16.799999"
     stroke="#000000"
     stroke-width="1"
     fill="none"
     id="circle811" />
  <circle
     cx="1722.7528"
     cy="2561.3"
     r="16.799999"
     stroke="#000000"
     stroke-width="1"
     fill="none"
     id="circle813" />
  <circle
     cx="1371.7933"
     cy="2561.3"
     r="16.799999"
     stroke="#000000"
     stroke-width="1"
     fill="none"
     id="circle815" />
  <circle
     cx="1764.6366"
     cy="2145.7483"
     r="6.0479999"
     stroke="#000000"
     stroke-width="1"
     fill="none"
     id="circle914" />
  <circle
     cx="1792.8328"
     cy="2145.7483"
     r="6.0479999"
     stroke="#000000"
     stroke-width="1"
     fill="none"
     id="circle914-2" />
  <circle
     cx="1821.0289"
     cy="2145.7483"
     r="6.0479999"
     stroke="#000000"
     stroke-width="1"
     fill="none"
     id="circle914-5" />
  <circle
     cx="1849.2251"
     cy="2145.7483"
     r="6.0479999"
     stroke="#000000"
     stroke-width="1"
     fill="none"
     id="circle914-6" />
  <circle
     cx="1764.6366"
     cy="2192.2188"
     r="6.0479999"
     stroke="#000000"
     stroke-width="1"
     fill="none"
     id="circle914-4" />
  <circle
     cx="1792.8328"
     cy="2192.2188"
     r="6.0479999"
     stroke="#000000"
     stroke-width="1"
     fill="none"
     id="circle914-2-0" />
  <circle
     cx="1821.0289"
     cy="2192.2188"
     r="6.0479999"
     stroke="#000000"
     stroke-width="1"
     fill="none"
     id="circle914-5-6" />
  <circle
     cx="1849.2251"
     cy="2192.2188"
     r="6.0479999"
     stroke="#000000"
     stroke-width="1"
     fill="none"
     id="circle914-6-0" />
  <path
     d="M 504.5029,1005.6207 H 48.5 v -76.79985 h 456.0029 z"
     stroke="#000000"
     stroke-width="1"
     fill="none"
     id="path2331" />
  <path
     d="m 326.81003,1062.5602 h -95.54066 v -77.34054 h 95.54066 z"
     stroke="#000000"
     stroke-width="0.459339"
     fill="none"
     id="path2331-1" />
  <path
     d="M 1409.0331,98.761037 V 866.76104 H 977.03315 V 98.761037 Z"
     stroke="#000000"
     stroke-width="1"
     fill="none"
     id="path3103" />
  <path
     d="M 1873.2997,98.761037 V 866.76104 h -432 V 98.761037 Z"
     stroke="#000000"
     stroke-width="1"
     fill="none"
     id="path3105" />
</svg>
