<?xml version="1.0" encoding="UTF-8" standalone="no"?>
<!-- Created with Inkscape (http://www.inkscape.org/) -->

<svg
   width="210mm"
   height="297mm"
   viewBox="0 0 210 297"
   version="1.1"
   id="svg19037"
   xml:space="preserve"
   inkscape:version="1.2.1 (9c6d41e4, 2022-07-14)"
   sodipodi:docname="manatee.svg"
   xmlns:inkscape="http://www.inkscape.org/namespaces/inkscape"
   xmlns:sodipodi="http://sodipodi.sourceforge.net/DTD/sodipodi-0.dtd"
   xmlns="http://www.w3.org/2000/svg"
   xmlns:svg="http://www.w3.org/2000/svg"><sodipodi:namedview
     id="namedview19039"
     pagecolor="#ffffff"
     bordercolor="#666666"
     borderopacity="1.0"
     inkscape:showpageshadow="2"
     inkscape:pageopacity="0.0"
     inkscape:pagecheckerboard="0"
     inkscape:deskcolor="#d1d1d1"
     inkscape:document-units="mm"
     showgrid="false"
     inkscape:zoom="2.0518451"
     inkscape:cx="436.19277"
     inkscape:cy="708.38681"
     inkscape:window-width="1792"
     inkscape:window-height="1067"
     inkscape:window-x="0"
     inkscape:window-y="25"
     inkscape:window-maximized="1"
     inkscape:current-layer="layer1" /><defs
     id="defs19034" /><g
     inkscape:label="Layer 1"
     inkscape:groupmode="layer"
     id="layer1"><path
       style="fill:#000000;stroke-width:0.264583"
       d="m 105.41933,212.42801 c -1.90499,-0.82919 -2.75321,-2.44695 -3.52224,-6.7178 -0.29539,-1.64045 -0.62909,-3.14012 -0.74155,-3.3326 -0.11247,-0.19249 -0.86918,-0.95442 -1.681562,-1.69319 -1.72767,-1.57109 -2.88262,-3.59577 -3.73052,-6.53972 -0.52132,-1.81009 -0.60439,-2.6859 -0.58883,-6.20842 0.0162,-3.66106 0.0942,-4.35074 0.72687,-6.42847 1.98475,-6.51763 6.309862,-11.70074 12.267122,-14.7006 5.89729,-2.96967 13.97416,-3.37201 20.84826,-1.03854 2.34957,0.79758 6.43222,2.94849 8.74128,4.60526 1.22331,0.87774 2.68252,1.65872 3.66781,1.96304 3.75165,1.15877 6.47536,4.1761 6.86559,7.60573 0.0929,0.81665 0.36638,1.37267 0.97594,1.98438 0.98048,0.98393 1.57999,2.23839 1.5717,3.28873 -0.008,1.02448 -0.84077,2.71899 -1.74676,3.55467 -0.73681,0.67962 -1.32103,1.01964 -4.2667,2.48319 -0.76399,0.37959 -1.38906,0.83944 -1.38906,1.02191 0,0.70166 -1.68252,5.39255 -2.47532,6.90124 -1.04865,1.99557 -3.71778,4.85029 -5.38038,5.75449 -1.69553,0.92211 -3.77054,1.44971 -4.03278,1.0254 -0.11523,-0.18645 -0.32804,0.14453 -0.52834,0.82171 -0.39792,1.34534 -0.97248,2.05995 -1.65625,2.05995 -0.64961,0 -3.96835,-3.48325 -4.84761,-5.08792 -0.37715,-0.6883 -0.88954,-2.23611 -1.13865,-3.43958 l -0.45292,-2.18813 -3.17148,-0.16838 c -1.74432,-0.0926 -3.55185,-0.31033 -4.01674,-0.48381 -0.83746,-0.3125 -0.8631,-0.29702 -2.77813,1.67769 l -1.93286,1.99311 2.19681,0.70931 c 2.22763,0.71926 3.6265,1.48635 4.09976,2.24816 0.52024,0.83743 -0.0453,2.23099 -1.60459,3.95409 -1.8438,2.03747 -4.08213,3.52711 -6.35441,4.22894 -1.97686,0.61059 -2.78711,0.64078 -3.92346,0.14616 z m 5.2487,-1.68208 c 2.78708,-1.37207 5.76115,-4.35005 5.76115,-5.76872 0,-0.84451 -0.7901,-1.32054 -3.75895,-2.26477 l -2.56833,-0.81684 -1.23961,0.72646 c -1.09687,0.64281 -1.43142,0.71107 -2.90525,0.59276 -1.52512,-0.12242 -3.55335,-0.96564 -3.54942,-1.47564 7.4e-4,-0.0973 1.22114,-0.18269 2.71198,-0.18981 3.09437,-0.0148 3.88748,-0.30405 5.20915,-1.89976 1.36436,-1.64724 1.10753,-2.15763 -1.57249,-3.12498 -1.23693,-0.44647 -2.49207,-0.94508 -2.78921,-1.10802 -1.01585,-0.55706 -3.03208,-2.93985 -3.01775,-3.56639 0.0139,-0.60665 0.0139,-0.60665 0.46302,0.0439 1.03525,1.49942 1.73908,2.13608 3.04105,2.75085 1.75093,0.82677 5.42473,1.89935 5.66899,1.65509 0.10228,-0.10228 -0.53066,-0.82431 -1.40654,-1.60453 -1.53884,-1.37075 -2.79383,-3.38233 -2.36161,-3.78536 0.11545,-0.10766 0.26786,-0.0171 0.33868,0.20113 0.0708,0.21828 0.89165,1.15047 1.82407,2.07153 2.87433,2.83932 6.91966,4.2872 9.80063,3.50777 1.55272,-0.42008 2.1232,-1.25836 2.31849,-3.4068 0.26536,-2.91945 1.12908,-5.81179 1.58504,-5.30785 0.0461,0.051 -0.0951,1.16421 -0.31371,2.47389 -0.32999,1.97673 -0.34706,2.96918 -0.1005,5.84204 0.47311,5.51269 1.16961,7.2647 3.98855,10.03296 1.76138,1.72972 1.88318,1.72293 2.37121,-0.13229 0.88621,-3.36891 0.49921,-7.58968 -1.15456,-12.59184 -1.36389,-4.12538 -1.61838,-5.42275 -1.21249,-6.18118 0.36693,-0.6856 0.80039,-0.46893 0.80039,0.4001 0,0.70569 0.25036,0.81882 0.73642,0.33275 0.1722,-0.1722 0.38932,-0.23687 0.48248,-0.1437 0.29318,0.29318 -0.14063,1.03028 -0.69107,1.17423 -0.6684,0.17479 -0.66658,0.20087 0.17113,2.4609 0.89839,2.42373 1.37728,2.75466 3.73986,2.58438 1.2466,-0.0898 2.21432,-0.35245 3.2341,-0.87761 l 1.4552,-0.74941 -1.05833,-0.19604 c -0.58208,-0.10782 -1.47505,-0.2648 -1.98437,-0.34883 -1.02627,-0.16932 -2.64584,-1.0602 -2.64584,-1.4554 0,-0.13947 0.56555,0.003 1.25677,0.31579 0.97629,0.44231 1.91431,0.59277 4.203,0.67418 2.8917,0.10284 4.45814,-0.14222 6.80773,-1.06504 l 0.75813,-0.29776 -1.02271,-0.51591 c -0.56249,-0.28375 -1.20289,-0.67329 -1.42312,-0.86564 -0.33319,-0.29103 -0.61802,-0.2781 -1.69679,0.077 -4.04438,1.33146 -8.50289,-2.67611 -6.54394,-5.88206 0.50784,-0.83109 1.76949,-1.66818 2.06655,-1.37112 0.0952,0.0952 -0.13413,0.41474 -0.50962,0.7101 -1.00897,0.79366 -1.37095,2.10872 -0.8944,3.24929 0.87003,2.08226 3.58498,3.08115 6.07159,2.23388 1.16634,-0.39741 1.18636,-0.39389 2.45493,0.43129 2.20195,1.43236 4.1132,1.04022 5.60365,-1.14971 0.39334,-0.57792 0.59532,-1.26738 0.59532,-2.0321 0,-0.98069 -0.16004,-1.33103 -1.04818,-2.29454 -1.1899,-1.2909 -3.11204,-2.42364 -4.57191,-2.6943 -1.06181,-0.19686 -1.10968,-0.65466 -0.0685,-0.65466 0.34663,0 0.70382,-0.11907 0.79375,-0.26459 0.3227,-0.52212 1.4099,-0.26612 1.96639,0.46302 l 0.55531,0.72761 -0.16459,-0.79375 c -0.49765,-2.39985 -2.43442,-4.80384 -4.69725,-5.83037 -2.04681,-0.92854 -5.45049,-1.52982 -7.86771,-1.38989 -2.60684,0.1509 -4.95634,1.23835 -6.86507,3.17743 -0.72806,0.73963 -1.38477,1.28374 -1.45937,1.20914 -0.28193,-0.28193 0.42528,-1.54888 1.41964,-2.54324 1.92655,-1.92656 5.80253,-3.19915 8.64599,-2.83872 l 1.32291,0.16769 -1.28929,-0.92697 c -3.23551,-2.32625 -8.05364,-4.33199 -12.05264,-5.0174 -8.07389,-1.38383 -15.75121,0.74352 -21.22727,5.88196 -4.758042,4.46469 -7.158322,10.07263 -7.151832,16.70933 0.005,5.3068 1.50898,9.50816 4.274572,11.94254 1.74687,1.53765 1.95069,1.92977 2.38787,4.59391 0.57499,3.50392 1.23266,5.28875 2.29126,6.21822 0.89681,0.78741 1.08179,0.84261 2.48369,0.74121 0.99362,-0.0719 2.1026,-0.39898 3.22354,-0.95082 z m 35.39448,-24.52944 c 0,-0.21828 0.11906,-0.39687 0.26458,-0.39687 0.14552,0 0.26459,0.17859 0.26459,0.39687 0,0.21828 -0.11907,0.39688 -0.26459,0.39688 -0.14552,0 -0.26458,-0.1786 -0.26458,-0.39688 z m 1.63821,0.11245 c 0.0522,-0.15644 0.20792,-0.28443 0.34616,-0.28443 0.13825,0 0.29402,0.12799 0.34617,0.28443 0.0521,0.15643 -0.10363,0.28443 -0.34617,0.28443 -0.24253,0 -0.39831,-0.128 -0.34616,-0.28443 z m -11.26995,-0.2034 c -0.0916,-0.14815 -0.0376,-0.34904 0.12003,-0.44643 0.40679,-0.25141 0.66925,0.093 0.32966,0.43255 -0.19002,0.19002 -0.33801,0.19459 -0.44969,0.0139 z m 1.69424,-0.57051 c 0,-0.14552 0.17859,-0.26458 0.39687,-0.26458 0.21829,0 0.39688,0.11906 0.39688,0.26458 0,0.14552 -0.17859,0.26459 -0.39688,0.26459 -0.21828,0 -0.39687,-0.11907 -0.39687,-0.26459 z m 9.78958,-0.79375 c 0,-0.14552 0.11906,-0.26458 0.26459,-0.26458 0.14552,0 0.26458,0.11906 0.26458,0.26458 0,0.14552 -0.11906,0.26459 -0.26458,0.26459 -0.14553,0 -0.26459,-0.11907 -0.26459,-0.26459 z m -4.32032,-0.43976 c -0.0861,-0.0861 0.016,-0.49015 0.22693,-0.89795 0.47609,-0.92066 1.35958,-1.24491 1.90524,-0.69925 0.46243,0.46243 0.24383,0.97863 -0.41442,0.97863 -0.25008,0 -0.70366,0.17439 -1.00797,0.38753 -0.3043,0.21315 -0.6237,0.31711 -0.70978,0.23104 z m -6.52759,-0.35399 c 0,-0.14552 0.11906,-0.26458 0.26458,-0.26458 0.14552,0 0.26458,0.11906 0.26458,0.26458 0,0.14552 -0.11906,0.26459 -0.26458,0.26459 -0.14552,0 -0.26458,-0.11907 -0.26458,-0.26459 z m 3.95518,-0.14864 c -0.19886,-0.23961 -0.65497,-0.5472 -1.01357,-0.68354 -0.59694,-0.22696 -0.61635,-0.28356 -0.22983,-0.67008 0.52121,-0.5212 1.08609,-0.32741 1.67776,0.57559 0.53651,0.81882 0.15968,1.49381 -0.43436,0.77803 z m -7.37288,-3.25003 c -0.42299,-0.79037 0.36021,-1.67736 1.39259,-1.57713 0.65536,0.0636 0.85407,0.21981 0.92575,0.72765 0.16588,1.1752 -1.76531,1.88282 -2.31834,0.84948 z m -32.83022,-2.43955 c 0,-0.60869 0.5743,-1.30553 1.07594,-1.30553 0.74043,0 0.97801,0.78553 0.37169,1.22889 -0.58473,0.42756 -1.44763,0.47325 -1.44763,0.0766 z m 0.62355,-2.49952 c -0.19713,-0.51372 0.35924,-1.18726 0.98073,-1.18726 0.75518,0 0.84263,0.44739 0.20378,1.04256 -0.6964,0.6488 -0.97787,0.68318 -1.18451,0.1447 z m 3.87437,-2.76545 c 0,-0.85088 1.82648,-1.48663 2.25926,-0.78638 0.28343,0.4586 -0.69417,1.30624 -1.50652,1.30624 -0.57186,0 -0.75274,-0.12492 -0.75274,-0.51986 z m 4.82732,-1.92754 c 0.12946,-0.39312 1.25809,-0.61304 1.25809,-0.24514 0,0.2566 -0.61098,0.57587 -1.10202,0.57587 -0.14575,0 -0.21598,-0.14882 -0.15607,-0.33073 z m -0.98129,-1.50586 c -0.25377,-0.41061 0.0809,-0.81719 0.98574,-1.19766 0.91263,-0.38373 1.78281,-0.2482 1.78281,0.27768 0,0.65567 -2.43237,1.46394 -2.76855,0.91998 z m 11.94077,0.0727 c -0.35428,-0.35427 -0.16137,-0.61736 0.45267,-0.61736 0.34599,0 0.77728,0.1786 0.95844,0.39688 0.28015,0.33755 0.21249,0.39687 -0.45267,0.39687 -0.43013,0 -0.86143,-0.0794 -0.95844,-0.17639 z m 3.40307,-0.97597 c -0.58721,-0.42938 -0.37765,-1.22889 0.32212,-1.22889 0.64694,0 1.65467,0.73425 1.65467,1.20563 0,0.49284 -1.31346,0.5083 -1.97679,0.0233 z m 10.10406,35.80319 c 2.38855,-1.03211 4.95518,-4.09943 6.43686,-7.69253 0.86387,-2.09492 0.83069,-2.15139 -1.43866,-2.44777 -2.80488,-0.36631 -4.19276,0.63646 -5.1248,3.70278 -0.30374,0.9993 -0.88567,2.88846 -1.29317,4.19815 -0.4075,1.30969 -0.78465,2.54158 -0.83811,2.73753 -0.11101,0.40693 0.44944,0.28328 2.25788,-0.49816 z m -1.76066,-4.22724 c 0.27597,-1.10882 0.68405,-2.53271 0.90686,-3.1642 0.2228,-0.6315 0.37167,-1.18161 0.33082,-1.22246 -0.0409,-0.0409 -0.76189,0.12654 -1.60229,0.372 -1.31626,0.38444 -1.50651,0.51961 -1.37292,0.97545 0.0853,0.29104 0.22962,1.95791 0.32073,3.70416 0.15977,3.06234 0.17895,3.14264 0.54035,2.26304 0.20608,-0.50159 0.60048,-1.81918 0.87645,-2.92799 z"
       id="path19067" /></g></svg>
