<?xml version="1.0" encoding="UTF-8" standalone="no"?>
<!-- Created with Inkscape (http://www.inkscape.org/) -->

<svg
   width="6in"
   height="6in"
   viewBox="0 0 152.4 152.4"
   version="1.1"
   id="svg5"
   inkscape:version="1.1.1 (3bf5ae0d25, 2021-09-20)"
   sodipodi:docname="5x5-Side.svg"
   xmlns:inkscape="http://www.inkscape.org/namespaces/inkscape"
   xmlns:sodipodi="http://sodipodi.sourceforge.net/DTD/sodipodi-0.dtd"
   xmlns="http://www.w3.org/2000/svg"
   xmlns:svg="http://www.w3.org/2000/svg">
  <sodipodi:namedview
     id="namedview7"
     pagecolor="#ffffff"
     bordercolor="#666666"
     borderopacity="1.0"
     inkscape:pageshadow="2"
     inkscape:pageopacity="0.0"
     inkscape:pagecheckerboard="0"
     inkscape:document-units="in"
     showgrid="false"
     units="in"
     width="6in"
     inkscape:zoom="1.0998546"
     inkscape:cx="824.19985"
     inkscape:cy="413.23644"
     inkscape:window-width="3440"
     inkscape:window-height="1376"
     inkscape:window-x="3840"
     inkscape:window-y="2187"
     inkscape:window-maximized="1"
     inkscape:current-layer="layer1" />
  <defs
     id="defs2" />
  <g
     inkscape:label="Layer 1"
     inkscape:groupmode="layer"
     id="layer1">
    <path
       id="rect948"
       style="stroke-width:5.0434"
       d="M 24 0 L 24 24 L 0 24 L 0 48 L 24 48 L 24 106.9082 L 0 106.9082 L 0 130.9082 L 24 130.9082 L 24 189.81836 L 0 189.81836 L 0 213.81836 L 24 213.81836 L 24 314.18164 L 0 314.18164 L 0 338.18164 L 24 338.18164 L 24 397.0918 L 0 397.0918 L 0 421.0918 L 24 421.0918 L 24 480 L 0 480 L 0 504 L 24 504 L 24 528 L 48 528 L 48 504 L 106.9082 504 L 106.9082 528 L 130.9082 528 L 130.9082 504 L 189.81836 504 L 189.81836 528 L 213.81836 528 L 213.81836 504 L 314.18164 504 L 314.18164 528 L 338.18164 528 L 338.18164 504 L 397.0918 504 L 397.0918 528 L 421.0918 528 L 421.0918 504 L 480 504 L 480 528 L 504 528 L 504 504 L 528 504 L 528 480 L 504 480 L 504 421.0918 L 528 421.0918 L 528 397.0918 L 504 397.0918 L 504 338.18164 L 528 338.18164 L 528 314.18164 L 504 314.18164 L 504 213.81836 L 528 213.81836 L 528 189.81836 L 504 189.81836 L 504 130.9082 L 528 130.9082 L 528 106.9082 L 504 106.9082 L 504 48 L 528 48 L 528 24 L 504 24 L 504 0 L 480 0 L 480 24 L 421.0918 24 L 421.0918 0 L 397.0918 0 L 397.0918 24 L 338.18164 24 L 338.18164 0 L 314.18164 0 L 314.18164 24 L 213.81836 24 L 213.81836 0 L 189.81836 0 L 189.81836 24 L 130.9082 24 L 130.9082 0 L 106.9082 0 L 106.9082 24 L 48 24 L 48 0 L 24 0 z "
       transform="scale(0.26458333)" />
  </g>
</svg>
